<?xml version="1.0" encoding="UTF-8"?>
<svg width="13px" height="16px" viewBox="0 0 13 16" version="1.1" xmlns="http://www.w3.org/2000/svg" xmlns:xlink="http://www.w3.org/1999/xlink">
    <!-- Generator: Sketch 41.2 (35397) - http://www.bohemiancoding.com/sketch -->
    <title>assets/icons/icon-trash</title>
    <desc>Created with Sketch.</desc>
    <defs></defs>
    <g id="Style-guide" stroke="none" stroke-width="1" fill="none" fill-rule="evenodd">
        <g id="Icons" transform="translate(-219.000000, -567.000000)" fill="#000000">
            <g id="assets/icons/icon-trash" transform="translate(219.000000, 567.000000)">
                <path d="M13,3 L12,3 L12,14.5 C12,14.7083344 11.9609379,14.9036449 11.8828125,15.0859375 C11.8046871,15.2682301 11.6979173,15.4270827 11.5625,15.5625 C11.4270827,15.6979173 11.2682301,15.8046871 11.0859375,15.8828125 C10.9036449,15.9609379 10.7083344,16 10.5,16 L2.5,16 C2.29166563,16 2.09635508,15.9609379 1.9140625,15.8828125 C1.73176992,15.8046871 1.57291734,15.6979173 1.4375,15.5625 C1.30208266,15.4270827 1.19531289,15.2682301 1.1171875,15.0859375 C1.03906211,14.9036449 1,14.7083344 1,14.5 L1,3 L0,3 L0,2 L4,2 L4,1 C4,0.859374297 4.02604141,0.729167266 4.078125,0.609375 C4.13020859,0.489582734 4.20182246,0.384115039 4.29296875,0.29296875 C4.38411504,0.201822461 4.48958273,0.130208594 4.609375,0.078125 C4.72916727,0.0260414062 4.8593743,0 5,0 L8,0 C8.1406257,0 8.27083273,0.0260414062 8.390625,0.078125 C8.51041727,0.130208594 8.61588496,0.201822461 8.70703125,0.29296875 C8.79817754,0.384115039 8.86979141,0.489582734 8.921875,0.609375 C8.97395859,0.729167266 9,0.859374297 9,1 L9,2 L13,2 L13,3 Z M5,2 L8,2 L8,1 L5,1 L5,2 Z M11,3 L2,3 L2,14.5 C2,14.6354173 2.04947867,14.7526037 2.1484375,14.8515625 C2.24739633,14.9505213 2.36458266,15 2.5,15 L10.5,15 C10.6354173,15 10.7526037,14.9505213 10.8515625,14.8515625 C10.9505213,14.7526037 11,14.6354173 11,14.5 L11,3 Z M5,13 L4,13 L4,5 L5,5 L5,13 Z M7,13 L6,13 L6,5 L7,5 L7,13 Z M9,13 L8,13 L8,5 L9,5 L9,13 Z" id="î"></path>
            </g>
        </g>
    </g>
</svg>