<?xml version="1.0" encoding="UTF-8"?>
<svg width="14px" height="14px" viewBox="0 0 14 14" version="1.1" xmlns="http://www.w3.org/2000/svg" xmlns:xlink="http://www.w3.org/1999/xlink">
    <!-- Generator: Sketch 41.2 (35397) - http://www.bohemiancoding.com/sketch -->
    <title>assets/icons/icon-save</title>
    <desc>Created with Sketch.</desc>
    <defs></defs>
    <g id="Style-guide" stroke="none" stroke-width="1" fill="none" fill-rule="evenodd">
        <g id="Icons" transform="translate(-218.000000, -618.000000)" fill="#000000">
            <g id="assets/icons/icon-save" transform="translate(218.000000, 618.000000)">
                <path d="M13,0 C13.1406257,0 13.2708327,0.0260414062 13.390625,0.078125 C13.5104173,0.130208594 13.615885,0.201822461 13.7070312,0.29296875 C13.7981775,0.384115039 13.8697914,0.489582734 13.921875,0.609375 C13.9739586,0.729167266 14,0.859374297 14,1 L14,14 L1.7890625,14 L0,12.203125 L0,1 C0,0.859374297 0.0260414062,0.729167266 0.078125,0.609375 C0.130208594,0.489582734 0.201822461,0.384115039 0.29296875,0.29296875 C0.384115039,0.201822461 0.489582734,0.130208594 0.609375,0.078125 C0.729167266,0.0260414062 0.859374297,0 1,0 L13,0 Z M3,6 L11,6 L11,1 L3,1 L3,6 Z M9,10 L4,10 L4,13 L5,13 L5,11 L6,11 L6,13 L9,13 L9,10 Z M13,1 L12,1 L12,7 L2,7 L2,1 L1,1 L1,11.7890625 L2.203125,13 L3,13 L3,9 L10,9 L10,13 L13,13 L13,1 Z" id="g"></path>
            </g>
        </g>
    </g>
</svg>