<?xml version="1.0" encoding="UTF-8"?>
<svg width="14px" height="2px" viewBox="0 0 14 2" version="1.1" xmlns="http://www.w3.org/2000/svg" xmlns:xlink="http://www.w3.org/1999/xlink">
    <!-- Generator: Sketch 41.2 (35397) - http://www.bohemiancoding.com/sketch -->
    <title>assets/icons/icon-dots</title>
    <desc>Created with Sketch.</desc>
    <defs></defs>
    <g id="Style-guide" stroke="none" stroke-width="1" fill="none" fill-rule="evenodd">
        <g id="Icons" transform="translate(-168.000000, -174.000000)" fill="#000000">
            <g id="assets/icons/icon-dots" transform="translate(168.000000, 174.000000)">
                <path d="M1,0 C1.1406257,0 1.27083273,0.0260414062 1.390625,0.078125 C1.51041727,0.130208594 1.61588496,0.201822461 1.70703125,0.29296875 C1.79817754,0.384115039 1.86979141,0.489582734 1.921875,0.609375 C1.97395859,0.729167266 2,0.859374297 2,1 C2,1.1406257 1.97395859,1.27083273 1.921875,1.390625 C1.86979141,1.51041727 1.79817754,1.61588496 1.70703125,1.70703125 C1.61588496,1.79817754 1.51041727,1.86979141 1.390625,1.921875 C1.27083273,1.97395859 1.1406257,2 1,2 C0.859374297,2 0.729167266,1.97395859 0.609375,1.921875 C0.489582734,1.86979141 0.384115039,1.79817754 0.29296875,1.70703125 C0.201822461,1.61588496 0.130208594,1.51041727 0.078125,1.390625 C0.0260414062,1.27083273 0,1.1406257 0,1 C0,0.859374297 0.0260414062,0.729167266 0.078125,0.609375 C0.130208594,0.489582734 0.201822461,0.384115039 0.29296875,0.29296875 C0.384115039,0.201822461 0.489582734,0.130208594 0.609375,0.078125 C0.729167266,0.0260414062 0.859374297,0 1,0 Z M7,0 C7.1406257,0 7.27083273,0.0260414062 7.390625,0.078125 C7.51041727,0.130208594 7.61588496,0.201822461 7.70703125,0.29296875 C7.79817754,0.384115039 7.86979141,0.489582734 7.921875,0.609375 C7.97395859,0.729167266 8,0.859374297 8,1 C8,1.1406257 7.97395859,1.27083273 7.921875,1.390625 C7.86979141,1.51041727 7.79817754,1.61588496 7.70703125,1.70703125 C7.61588496,1.79817754 7.51041727,1.86979141 7.390625,1.921875 C7.27083273,1.97395859 7.1406257,2 7,2 C6.8593743,2 6.72916727,1.97395859 6.609375,1.921875 C6.48958273,1.86979141 6.38411504,1.79817754 6.29296875,1.70703125 C6.20182246,1.61588496 6.13020859,1.51041727 6.078125,1.390625 C6.02604141,1.27083273 6,1.1406257 6,1 C6,0.859374297 6.02604141,0.729167266 6.078125,0.609375 C6.13020859,0.489582734 6.20182246,0.384115039 6.29296875,0.29296875 C6.38411504,0.201822461 6.48958273,0.130208594 6.609375,0.078125 C6.72916727,0.0260414062 6.8593743,0 7,0 Z M13,0 C13.1406257,0 13.2708327,0.0260414062 13.390625,0.078125 C13.5104173,0.130208594 13.615885,0.201822461 13.7070312,0.29296875 C13.7981775,0.384115039 13.8697914,0.489582734 13.921875,0.609375 C13.9739586,0.729167266 14,0.859374297 14,1 C14,1.1406257 13.9739586,1.27083273 13.921875,1.390625 C13.8697914,1.51041727 13.7981775,1.61588496 13.7070312,1.70703125 C13.615885,1.79817754 13.5104173,1.86979141 13.390625,1.921875 C13.2708327,1.97395859 13.1406257,2 13,2 C12.8593743,2 12.7291673,1.97395859 12.609375,1.921875 C12.4895827,1.86979141 12.384115,1.79817754 12.2929688,1.70703125 C12.2018225,1.61588496 12.1302086,1.51041727 12.078125,1.390625 C12.0260414,1.27083273 12,1.1406257 12,1 C12,0.859374297 12.0260414,0.729167266 12.078125,0.609375 C12.1302086,0.489582734 12.2018225,0.384115039 12.2929688,0.29296875 C12.384115,0.201822461 12.4895827,0.130208594 12.609375,0.078125 C12.7291673,0.0260414062 12.8593743,0 13,0 Z" id=""></path>
            </g>
        </g>
    </g>
</svg>