<?xml version="1.0" encoding="UTF-8"?>
<svg width="10px" height="14px" viewBox="0 0 10 14" version="1.1" xmlns="http://www.w3.org/2000/svg" xmlns:xlink="http://www.w3.org/1999/xlink">
    <!-- Generator: Sketch 41.2 (35397) - http://www.bohemiancoding.com/sketch -->
    <title>assets/icons/icon-file-ppt</title>
    <desc>Created with Sketch.</desc>
    <defs></defs>
    <g id="Style-guide" stroke="none" stroke-width="1" fill="none" fill-rule="evenodd">
        <g id="Icons" transform="translate(-70.000000, -418.000000)">
            <g id="assets/icons/icon-file-ppt" transform="translate(70.000000, 418.000000)">
                <g id="Icons-/-Microsoft-Office-/-Powerpoint:active">
                    <g id=".icon-Powerpoint:active">
                        <polygon id="Rectangle" fill="#D34419" points="0 1.51624549 8.65195178 0 8.65195178 14 0 12.3826715"></polygon>
                        <rect id="Rectangle" fill="#D34419" opacity="0.4" x="8.46153846" y="1.71841155" width="1.53846154" height="10.6137184"></rect>
                        <path d="M3.628,9 L3.628,7.5 L4.69,7.5 C5.524,7.5 5.992,6.93 5.992,6.252 C5.992,5.568 5.53,4.998 4.69,4.998 L2.926,4.998 L2.926,9 L3.628,9 Z M4.594,6.882 L3.628,6.882 L3.628,5.616 L4.594,5.616 C4.99,5.616 5.272,5.868 5.272,6.252 C5.272,6.63 4.99,6.882 4.594,6.882 L4.594,6.882 Z" id="P" fill="#FFFFFF"></path>
                    </g>
                </g>
            </g>
        </g>
    </g>
</svg>