<?xml version="1.0" encoding="UTF-8"?>
<svg width="10px" height="14px" viewBox="0 0 10 14" version="1.1" xmlns="http://www.w3.org/2000/svg" xmlns:xlink="http://www.w3.org/1999/xlink">
    <!-- Generator: Sketch 41.2 (35397) - http://www.bohemiancoding.com/sketch -->
    <title>assets/icons/icon-file-eml</title>
    <desc>Created with Sketch.</desc>
    <defs></defs>
    <g id="Style-guide" stroke="none" stroke-width="1" fill="none" fill-rule="evenodd">
        <g id="Icons" transform="translate(-70.000000, -368.000000)">
            <g id="assets/icons/icon-file-eml" transform="translate(70.000000, 368.000000)">
                <g id="Icons-/-Microsoft-Office-/-Outlook:active">
                    <g id=".icon-Outlook:active">
                        <polygon id="Rectangle" fill="#166EB8" points="0 1.51624549 8.65195178 0 8.65195178 14 0 12.3826715"></polygon>
                        <rect id="Rectangle" fill="#166EB8" opacity="0.4" x="8.46153846" y="1.71841155" width="1.53846154" height="10.6137184"></rect>
                        <path d="M4.798,9.072 C5.992,9.072 6.844,8.196 6.844,7.002 C6.844,5.808 5.992,4.932 4.798,4.932 C3.598,4.932 2.752,5.808 2.752,7.002 C2.752,8.196 3.598,9.072 4.798,9.072 L4.798,9.072 Z M4.798,8.448 C3.988,8.448 3.472,7.824 3.472,7.002 C3.472,6.174 3.988,5.556 4.798,5.556 C5.602,5.556 6.124,6.174 6.124,7.002 C6.124,7.824 5.602,8.448 4.798,8.448 L4.798,8.448 Z" id="O" fill="#FFFFFF"></path>
                    </g>
                </g>
            </g>
        </g>
    </g>
</svg>