<?xml version="1.0" encoding="UTF-8"?>
<svg width="14px" height="14px" viewBox="0 0 14 14" version="1.1" xmlns="http://www.w3.org/2000/svg" xmlns:xlink="http://www.w3.org/1999/xlink">
    <!-- Generator: Sketch 41.2 (35397) - http://www.bohemiancoding.com/sketch -->
    <title>assets/icons/icon-search</title>
    <desc>Created with Sketch.</desc>
    <defs></defs>
    <g id="Style-guide" stroke="none" stroke-width="1" fill="none" fill-rule="evenodd">
        <g id="Icons" transform="translate(-168.000000, -68.000000)" fill="#fff">
            <g id="assets/icons/icon-search" transform="translate(168.000000, 68.000000)">
                <path d="M14,13.5214844 C14,13.6490892 13.9612634,13.7607417 13.8837891,13.8564453 C13.8063147,13.9521489 13.6992194,14 13.5625,14 C13.4440098,14 13.3414718,13.9567062 13.2548828,13.8701172 L7.88867188,8.51074219 C7.45116969,8.87077003 6.97151954,9.14648342 6.44970703,9.33789062 C5.92789453,9.52929783 5.38216431,9.625 4.8125,9.625 C4.3704405,9.625 3.94433799,9.56803442 3.53417969,9.45410156 C3.12402139,9.3401687 2.74121271,9.17838646 2.38574219,8.96875 C2.03027166,8.75911354 1.70556788,8.50732569 1.41162109,8.21337891 C1.11767431,7.91943212 0.865886465,7.59472834 0.65625,7.23925781 C0.446613535,6.88378729 0.284831299,6.50097861 0.170898438,6.09082031 C0.0569655762,5.68066201 0,5.2545595 0,4.8125 C0,4.3704405 0.0569655762,3.94433799 0.170898438,3.53417969 C0.284831299,3.12402139 0.446613535,2.74121271 0.65625,2.38574219 C0.865886465,2.03027166 1.11767431,1.70556788 1.41162109,1.41162109 C1.70556788,1.11767431 2.03027166,0.865886465 2.38574219,0.65625 C2.74121271,0.446613535 3.12402139,0.284831299 3.53417969,0.170898438 C3.94433799,0.0569655762 4.3704405,0 4.8125,0 C5.2545595,0 5.68066201,0.0569655762 6.09082031,0.170898438 C6.50097861,0.284831299 6.88378729,0.446613535 7.23925781,0.65625 C7.59472834,0.865886465 7.91943212,1.11767431 8.21337891,1.41162109 C8.50732569,1.70556788 8.75911354,2.03027166 8.96875,2.38574219 C9.17838646,2.74121271 9.3401687,3.12402139 9.45410156,3.53417969 C9.56803442,3.94433799 9.625,4.3704405 9.625,4.8125 C9.625,5.38216431 9.52929783,5.92789453 9.33789062,6.44970703 C9.14648342,6.97151954 8.87077003,7.45116969 8.51074219,7.88867188 C8.5791019,7.95703159 8.71012273,8.08691311 8.90380859,8.27832031 C9.09749446,8.46972752 9.32991401,8.69758982 9.60107422,8.96191406 C9.87223443,9.2262383 10.1684554,9.51676274 10.4897461,9.83349609 C10.8110368,10.1502294 11.1346012,10.4715153 11.4604492,10.7973633 C11.7862972,11.1232113 12.1018865,11.4410792 12.4072266,11.7509766 C12.7125666,12.0608739 12.9837228,12.3411446 13.2207031,12.5917969 C13.4576835,12.8424492 13.6468092,13.0509432 13.7880859,13.2172852 C13.9293627,13.3836271 14,13.4850259 14,13.5214844 Z M4.8125,8.75 C5.35482042,8.75 5.86523198,8.64632265 6.34375,8.43896484 C6.82226802,8.23160704 7.23925604,7.95019709 7.59472656,7.59472656 C7.95019709,7.23925604 8.23160704,6.82226802 8.43896484,6.34375 C8.64632265,5.86523198 8.75,5.35482042 8.75,4.8125 C8.75,4.27017958 8.64632265,3.75976802 8.43896484,3.28125 C8.23160704,2.80273198 7.95019709,2.38574396 7.59472656,2.03027344 C7.23925604,1.67480291 6.82226802,1.39339296 6.34375,1.18603516 C5.86523198,0.978677349 5.35482042,0.875 4.8125,0.875 C4.27017958,0.875 3.75976802,0.978677349 3.28125,1.18603516 C2.80273198,1.39339296 2.38574396,1.67480291 2.03027344,2.03027344 C1.67480291,2.38574396 1.39339296,2.80273198 1.18603516,3.28125 C0.978677349,3.75976802 0.875,4.27017958 0.875,4.8125 C0.875,5.35482042 0.978677349,5.86523198 1.18603516,6.34375 C1.39339296,6.82226802 1.67480291,7.23925604 2.03027344,7.59472656 C2.38574396,7.95019709 2.80273198,8.23160704 3.28125,8.43896484 C3.75976802,8.64632265 4.27017958,8.75 4.8125,8.75 Z" id=""></path>
            </g>
        </g>
    </g>
</svg>