<svg width="13" height="16" viewBox="0 0 13 16" xmlns="http://www.w3.org/2000/svg"><title>assets/icons/icon-trash</title><path d="M13 3h-1v11.5a1.505 1.505 0 0 1-.914 1.383A1.472 1.472 0 0 1 10.5 16h-8a1.505 1.505 0 0 1-1.383-.914A1.472 1.472 0 0 1 1 14.5V3H0V2h4V1a.969.969 0 0 1 .293-.707A.969.969 0 0 1 5 0h3a.969.969 0 0 1 .707.293A.969.969 0 0 1 9 1v1h4v1zM5 2h3V1H5v1zm6 1H2v11.5c0 .135.05.253.148.352A.48.48 0 0 0 2.5 15h8a.48.48 0 0 0 .352-.148A.48.48 0 0 0 11 14.5V3zM5 13H4V5h1v8zm2 0H6V5h1v8zm2 0H8V5h1v8z" fill-rule="evenodd"/></svg>