<svg width="10" height="14" viewBox="0 0 10 14" xmlns="http://www.w3.org/2000/svg"><title>assets/icons/icon-file-eml</title><g fill="none" fill-rule="evenodd"><path fill="#166EB8" d="M0 1.516L8.652 0v14L0 12.383z"/><path fill="#166EB8" opacity=".4" d="M8.462 1.718H10v10.614H8.462z"/><path d="M4.798 9.072c1.194 0 2.046-.876 2.046-2.07s-.852-2.07-2.046-2.07c-1.2 0-2.046.876-2.046 2.07s.846 2.07 2.046 2.07zm0-.624c-.81 0-1.326-.624-1.326-1.446 0-.828.516-1.446 1.326-1.446.804 0 1.326.618 1.326 1.446 0 .822-.522 1.446-1.326 1.446z" fill="#FFF"/></g></svg>