<svg width="14" height="14" viewBox="0 0 14 14" xmlns="http://www.w3.org/2000/svg"><title>assets/icons/icon-search</title><path d="M14 13.521c0 .128-.039.24-.116.335a.39.39 0 0 1-.322.144.42.42 0 0 1-.307-.13L7.889 8.51c-.438.36-.917.636-1.44.828a4.716 4.716 0 0 1-1.636.287 4.754 4.754 0 0 1-2.427-.656A4.874 4.874 0 0 1 .17 6.09 4.754 4.754 0 0 1 0 4.812a4.754 4.754 0 0 1 .656-2.426A4.874 4.874 0 0 1 3.534.17 4.79 4.79 0 0 1 4.813 0a4.754 4.754 0 0 1 2.426.656 4.874 4.874 0 0 1 2.215 2.878c.114.41.171.836.171 1.279 0 .57-.096 1.115-.287 1.637a4.914 4.914 0 0 1-.827 1.439A114.087 114.087 0 0 0 9.6 8.962a222.663 222.663 0 0 1 2.806 2.789c.306.31.577.59.814.84.237.251.426.46.567.626.141.167.212.268.212.304zM4.812 8.75a3.81 3.81 0 0 0 1.532-.311 3.998 3.998 0 0 0 1.25-.844c.356-.356.638-.773.845-1.251a3.81 3.81 0 0 0 .311-1.532 3.81 3.81 0 0 0-.311-1.53 3.998 3.998 0 0 0-.844-1.252 3.998 3.998 0 0 0-1.251-.844A3.81 3.81 0 0 0 4.812.875a3.81 3.81 0 0 0-1.53.311 3.998 3.998 0 0 0-1.252.844 3.998 3.998 0 0 0-.844 1.251 3.81 3.81 0 0 0-.311 1.531c0 .543.104 1.053.311 1.532.207.478.489.895.844 1.25.356.356.773.638 1.251.845a3.81 3.81 0 0 0 1.531.311z" fill="#fff" fill-rule="evenodd"/></svg>